<svg xmlns="http://www.w3.org/2000/svg" width="66.52" height="40" viewBox="0 0 66.52 40">
  <path id="logo" d="M34.944,43.38c-3.559,2.26-8.455,3.156-11.689,3.494l2.715,2.676,9.91,9.91c3.624,3.715-2.273,9.52-5.936,5.936-2.481-2.52-6.117-6.156-9.91-9.949l-9.91,9.936C6.461,68.954.564,63.1,4.227,59.447c2.52-2.52,6.117-6.156,9.91-9.91l2.676-2.676c-3.2-.338-8.17-1.182-11.767-3.494C.811,40.64-1.046,39.042.59,35.7c.961-1.9,3.6-3.494,7.092-.74a21.068,21.068,0,0,0,12.326,3.754,21.068,21.068,0,0,0,12.326-3.754c3.494-2.74,6.117-1.156,7.092.74,1.611,3.338-.247,4.935-4.481,7.676ZM3.149,16.846A16.846,16.846,0,1,1,19.994,33.652,16.859,16.859,0,0,1,3.149,16.846Zm8.572,0a8.274,8.274,0,1,0,8.273-8.312A8.287,8.287,0,0,0,11.721,16.846Z" transform="translate(0 40) rotate(-90)" fill="#d9d4cc"/>
</svg>
